<?xml version="1.0" encoding="UTF-8"?><svg xmlns="http://www.w3.org/2000/svg" viewBox="0 0 198.68 74.03"><defs><style>.d{fill:#7faac1;}</style></defs><g id="a"/><g id="b"><g id="c"><g><path class="d" d="M62.77,54.45c-.41,0-.83,.58-1.25,1.73-.43,1.15-.94,2.15-1.54,3-2.74,4.07-6.2,7.22-10.36,9.46s-8.66,3.36-13.48,3.36c-8.07,0-14.29-2.95-18.64-8.85-4.35-5.9-6.53-14.35-6.53-25.35,0-11.76,2.24-20.66,6.72-26.7S28.78,2.03,37.51,2.03c3.63,0,7.18,.77,10.67,2.29,3.48,1.53,6.46,3.63,8.92,6.31,.57,.63,1.13,1.37,1.68,2.22,.55,.85,.99,1.28,1.3,1.28,.28,0,.51-.09,.69-.26s.28-.43,.31-.78c0-.47-.36-1.18-1.09-2.13-.73-.95-1.69-1.99-2.89-3.12-2.81-2.59-5.98-4.54-9.51-5.87-3.53-1.32-7.38-1.99-11.54-1.99s-7.79,.61-11.45,1.82c-3.66,1.21-6.97,2.97-9.93,5.28-4.76,3.63-8.4,8.1-10.9,13.41C1.25,25.82,0,31.68,0,38.08c0,10.31,3.34,18.88,10.03,25.71,6.69,6.83,15.04,10.24,25.07,10.24,5.08,0,9.69-.94,13.84-2.82,4.15-1.88,7.76-4.66,10.86-8.35,1.23-1.45,2.23-2.88,3-4.28,.77-1.4,1.16-2.39,1.16-2.96,0-.35-.12-.63-.35-.85s-.51-.33-.83-.33Z"/><path class="d" d="M85.48,43.52c-4.23,0-7.84,1.48-10.83,4.45-3,2.96-4.49,6.51-4.49,10.64s1.51,7.55,4.54,10.55c3.03,3,6.62,4.49,10.79,4.49s7.77-1.47,10.74-4.4c2.96-2.93,4.45-6.48,4.45-10.64s-1.47-7.84-4.4-10.74c-2.93-2.9-6.53-4.35-10.79-4.35Zm9.13,24.34c-2.55,2.57-5.6,3.86-9.13,3.86-2.18,0-3.9-.39-5.18-1.16-1.28-.77-1.92-1.81-1.92-3.1v-16.98c0-1.61,.61-2.83,1.82-3.67,1.21-.84,2.97-1.25,5.27-1.25,3.6,0,6.65,1.26,9.18,3.78,2.52,2.52,3.78,5.61,3.78,9.27s-1.28,6.68-3.83,9.25Z"/><path class="d" d="M128.91,68.02c-.13,0-.41,.19-.85,.57-2.4,2.08-5.09,3.12-8.09,3.12-1.99,0-3.5-.36-4.54-1.09-1.04-.73-1.56-1.78-1.56-3.17v-16.98c0-1.58,.59-2.79,1.77-3.64,1.18-.85,2.83-1.28,4.94-1.28s4.59,1.18,7.62,3.55c.35,0,.63-.1,.85-.31,.22-.2,.33-.45,.33-.73,0-.98-.95-1.98-2.86-3-1.91-1.02-4.03-1.54-6.36-1.54-4.1,0-7.55,1.51-10.34,4.52-2.79,3.01-4.19,6.76-4.19,11.23,0,4.16,1.36,7.62,4.07,10.36,2.71,2.74,6.13,4.12,10.27,4.12,2.52,0,4.85-.56,6.98-1.68,2.13-1.12,3.19-2.15,3.19-3.1,0-.22-.13-.43-.38-.64-.25-.2-.54-.31-.85-.31Z"/><path class="d" d="M149.63,43.52c-4.23,0-7.84,1.48-10.83,4.45-3,2.96-4.49,6.51-4.49,10.64s1.51,7.55,4.54,10.55c3.03,3,6.62,4.49,10.79,4.49s7.77-1.47,10.74-4.4c2.96-2.93,4.45-6.48,4.45-10.64s-1.47-7.84-4.4-10.74c-2.93-2.9-6.53-4.35-10.79-4.35Zm9.13,24.34c-2.55,2.57-5.6,3.86-9.13,3.86-2.18,0-3.9-.39-5.18-1.16-1.28-.77-1.92-1.81-1.92-3.1v-16.98c0-1.61,.61-2.83,1.82-3.67,1.21-.84,2.97-1.25,5.27-1.25,3.6,0,6.65,1.26,9.18,3.78,2.52,2.52,3.78,5.61,3.78,9.27s-1.28,6.68-3.83,9.25Z"/><path class="d" d="M198.44,66.27v-15.33c0-1.45,.02-2.63,.05-3.52,.03-.9,.09-1.79,.19-2.67h-7.1l.09,2.03c-1.07-.91-2.27-1.62-3.6-2.13-1.32-.5-2.68-.76-4.07-.76-3.97,0-7.32,1.48-10.05,4.42-2.73,2.95-4.09,6.57-4.09,10.86s1.15,7.84,3.45,10.36c2.3,2.52,5.46,3.78,9.46,3.78,1.64,0,3.22-.28,4.73-.83s2.9-1.36,4.16-2.44l-.19,2.41h7.19c-.09-.88-.16-1.77-.19-2.67-.03-.9-.05-2.07-.05-3.52Zm-6.76,1.28c-1.39,1.29-2.82,2.26-4.31,2.89s-3.01,.95-4.59,.95c-3.31,0-5.92-1.09-7.83-3.26s-2.86-5.16-2.86-8.94,1.14-6.94,3.43-9.46c2.29-2.52,5.12-3.78,8.49-3.78,1.42,0,2.77,.28,4.07,.85,1.29,.57,2.49,1.42,3.6,2.55v18.21Z"/></g></g></g></svg>