<?xml version="1.0" encoding="UTF-8"?><svg xmlns="http://www.w3.org/2000/svg" viewBox="0 0 105.44 70.86"><defs><style>.d{fill:#7faac1;fill-rule:evenodd;}</style></defs><g id="a"/><g id="b"><g id="c"><path class="d" d="M98.51,27.49c-2.58,10.25-16.6,5.34-21.61,12.69,1.2-2.61,2.19-5.25,2.52-7.98,0-.64,.47-1.09,.98-1.07,1.11-.15,2.48,2.84,4.43-.33-.33-5.2,2.23-2.47,3.59-3.69,1.7-9.15,12.22-8.01,10.08,.37M30.71,38.94c.71,1.08,1.96,1.71,3.04,2.31,.73,.4,1.03-.02,.96-.43-1.38-1.21-2.76-2.31-4.13-3.62-.54-.57-.86-1.51-1.26-2.56-.72-.73-.98-.09-.76,.92,.72,1.13,1.25,2.37,2.15,3.38Zm-2.2-7.01c-1.71-.87,.24-1.99,1.37-.28,.6,.89-1.35,1.13-1.5,.28h.13Zm4.05-12.12c-.67-1.61-2.39-1.75-4.5-1.44-3.33,2.84-2.8,9.53,.12,18.62,.94,3.02,3.22,5.21,7.21,6.31,2.19,.56,3.72-1.34,3.24-3.12-1.56-4.92-3.1-6.81-3.46-10.76-.29-3.21-1.31-6.68-2.61-9.61Zm3.78,8.41c0-3.13-.23-4.96-1.02-6.97-.68-1.7-.3-1.87,.42-1.07,6.52,6.86,10.16,13.23,8.35,18.49-.41,1.17-1.14,2.23-2.44,3.11-.81,.46-.69-.22-.63-.77,.61-3.47-2.16-6.9-4.68-12.8Zm9.85,9.55l-.54-6.61c-.78-1.75-.4-2.56,1.38-2.22,1.6,.15,3.11,1.3,4.87,2.88,1.02,.81,1.86,1.24,2.66,1.64,3.07,1.53,4.97,.53,7.31,.76,2.88-.38,3.13,2.39,3.24,3.19-.42-.02-.45,.28,.08,1.04-1.95,4.65-8.43,4.57-13.11,3.28-2.53-.7-4.62-1.27-5.24-1.94-.57-.51-.54-.98-.65-2.02Zm-8.95-18.68c-1.26-.67-2.52-.92-3.78-.8-1.92-1.48-3.85-1.85-5.77-1.25-3.48,1.25-3.77,7.42-2.76,15.56,.94,3.99,2.8,7.55,5.83,10.57,1.71,1.6,3.84,1.82,7.21,1.32,.94-.4,1.88-1.28,2.88-1.74,1.62-.15,3.08-.81,4.38-1.92,5.22,4.43,16.86,4.2,20.42,0,1.31-2.2,1.32-4.47,1.92-6.61-.14-1.94-1.02-3.23-2.28-4.2-6.55-4.87-12.87-5.85-19.1-5.59-.9,.6-1.38,1.02-1.62,1.86,7.18-.65,13.51,1.14,19.4,4.99,1.34,.79,1.8,2.14,.72,1.8-1.78-.82-5.25-.5-7.87-.48-2.52-.56-3.6-2.44-5.95-3.66l-3.96-1.26c-.76-.08-1.88,.32-2.4,.72-1.71-4.13-4.43-6.79-7.27-9.31Zm14.51,20.9c-1.41-.29-2.59-1.3-3.66-2.18-.72-.58-.41-1.07,.04-1.17,1.82,.92,3.55,1.88,5.46,2.75,.81,.32,1.92,.25,3.17,.23,1.06,.43,.51,.97-.63,1.17-1.46-.27-2.97-.3-4.39-.81Zm9.65-1.11c-.97-.08-1.11,1.05,.84,.89,.01,0,.83-1.46-.6-.9-.07,.03-.14,.02-.24,.01Zm-31.95,20.08C6.19,50.74,13.23,18.66,.07,10-2.78-1.9,80.39-4.17,89.58,8.62c.1,3.82-6.68,4.74-7.04,12.39,.11,1.18,1.38,1.13,2.92-.77,4.62-4.38,9.83-5.36,16.49-.77,.86-.2,.04-1.16,1.51-1.04,5.07,5.75,.91,19.45-18.48,21.7-2.8,.61-4.84,2.6-3.98,4.59,4.95,5.3-2.04,9.69-4.74,4.44-.26-1.84-.51-3.67-.77-5.51-2.91,6.98-7.26,12.35-14.66,14.84-1.47,.6-1.8,2.01-.64,2.45,12.15,3.64,5.84,7.65-4.28,9.33-12.16,1.17-21.45,.57-28.3-1.53-5.43-2.44-6-5.15-1.22-6.73,2.8-.76,4.11-2.24,3.06-3.06Z"/></g></g></svg>