<?xml version="1.0" encoding="utf-8"?>
<!-- Generator: Adobe Illustrator 26.2.1, SVG Export Plug-In . SVG Version: 6.00 Build 0)  -->
<svg version="1.1" id="Capa_1" xmlns="http://www.w3.org/2000/svg" xmlns:xlink="http://www.w3.org/1999/xlink" x="0px" y="0px"
	 viewBox="0 0 105.4 70.9" style="enable-background:new 0 0 105.4 70.9;" xml:space="preserve">
<style type="text/css">
	.st0{fill-rule:evenodd;clip-rule:evenodd;fill:#502C1E;}
</style>
<g id="a">
</g>
<g id="b">
	<g id="c">
		<path class="st0" d="M98.5,27.5c-2.6,10.2-16.6,5.3-21.6,12.7c1.2-2.6,2.2-5.2,2.5-8c0-0.6,0.5-1.1,1-1.1c1.1-0.1,2.5,2.8,4.4-0.3
			c-0.3-5.2,2.2-2.5,3.6-3.7C90.1,18,100.6,19.1,98.5,27.5 M30.7,38.9c0.7,1.1,2,1.7,3,2.3c0.7,0.4,1,0,1-0.4
			c-1.4-1.2-2.8-2.3-4.1-3.6c-0.5-0.6-0.9-1.5-1.3-2.6c-0.7-0.7-1-0.1-0.8,0.9C29.3,36.7,29.8,37.9,30.7,38.9z M28.5,31.9
			c-1.7-0.9,0.2-2,1.4-0.3c0.6,0.9-1.4,1.1-1.5,0.3H28.5z M32.6,19.8c-0.7-1.6-2.4-1.8-4.5-1.4c-3.3,2.8-2.8,9.5,0.1,18.6
			c0.9,3,3.2,5.2,7.2,6.3c2.2,0.6,3.7-1.3,3.2-3.1c-1.6-4.9-3.1-6.8-3.5-10.8C34.9,26.2,33.9,22.7,32.6,19.8z M36.3,28.2
			c0-3.1-0.2-5-1-7c-0.7-1.7-0.3-1.9,0.4-1.1c6.5,6.9,10.2,13.2,8.4,18.5c-0.4,1.2-1.1,2.2-2.4,3.1C40.8,42.2,41,41.6,41,41
			C41.6,37.5,38.9,34.1,36.3,28.2L36.3,28.2z M46.2,37.8l-0.5-6.6c-0.8-1.8-0.4-2.6,1.4-2.2c1.6,0.1,3.1,1.3,4.9,2.9
			c1,0.8,1.9,1.2,2.7,1.6c3.1,1.5,5,0.5,7.3,0.8c2.9-0.4,3.1,2.4,3.2,3.2c-0.4,0-0.4,0.3,0.1,1c-2,4.7-8.4,4.6-13.1,3.3
			c-2.5-0.7-4.6-1.3-5.2-1.9C46.3,39.3,46.3,38.8,46.2,37.8z M37.2,19.1c-1.3-0.7-2.5-0.9-3.8-0.8c-1.9-1.5-3.9-1.9-5.8-1.2
			c-3.5,1.2-3.8,7.4-2.8,15.6c0.9,4,2.8,7.5,5.8,10.6c1.7,1.6,3.8,1.8,7.2,1.3c0.9-0.4,1.9-1.3,2.9-1.7c1.6-0.2,3.1-0.8,4.4-1.9
			c5.2,4.4,16.9,4.2,20.4,0c1.3-2.2,1.3-4.5,1.9-6.6c-0.1-1.9-1-3.2-2.3-4.2c-6.5-4.9-12.9-5.9-19.1-5.6c-0.9,0.6-1.4,1-1.6,1.9
			c7.2-0.6,13.5,1.1,19.4,5c1.3,0.8,1.8,2.1,0.7,1.8c-1.8-0.8-5.2-0.5-7.9-0.5c-2.5-0.6-3.6-2.4-6-3.7l-4-1.3
			c-0.8-0.1-1.9,0.3-2.4,0.7C42.8,24.3,40.1,21.6,37.2,19.1z M51.7,40c-1.4-0.3-2.6-1.3-3.7-2.2c-0.7-0.6-0.4-1.1,0-1.2
			c1.8,0.9,3.5,1.9,5.5,2.8c0.8,0.3,1.9,0.2,3.2,0.2c1.1,0.4,0.5,1-0.6,1.2C54.7,40.5,53.2,40.5,51.7,40L51.7,40z M61.4,38.9
			c-1-0.1-1.1,1,0.8,0.9c0,0,0.8-1.5-0.6-0.9C61.6,38.9,61.5,38.9,61.4,38.9z M29.4,59C6.2,50.7,13.2,18.7,0.1,10
			C-2.8-1.9,80.4-4.2,89.6,8.6c0.1,3.8-6.7,4.7-7,12.4c0.1,1.2,1.4,1.1,2.9-0.8c4.6-4.4,9.8-5.4,16.5-0.8c0.9-0.2,0-1.2,1.5-1
			c5.1,5.8,0.9,19.5-18.5,21.7c-2.8,0.6-4.8,2.6-4,4.6c4.9,5.3-2,9.7-4.7,4.4c-0.3-1.8-0.5-3.7-0.8-5.5c-2.9,7-7.3,12.3-14.7,14.8
			c-1.5,0.6-1.8,2-0.6,2.5c12.1,3.6,5.8,7.7-4.3,9.3c-12.2,1.2-21.5,0.6-28.3-1.5c-5.4-2.4-6-5.2-1.2-6.7
			C29.2,61.3,30.5,59.8,29.4,59L29.4,59z"/>
	</g>
</g>
</svg>
